<svg id="Layer_1" data-name="Layer 1" xmlns="http://www.w3.org/2000/svg" viewBox="0 0 3043.01 1080"><defs><style>.cls-1{fill:#fff;}.cls-2{fill:#1d1627;}.cls-3{fill:#348472;}</style></defs><path class="cls-1" d="M3028.3,129.39a72.48,72.48,0,0,0-58.43-29.18H1945.24V65.37l-53.93-13.48c-14.08-3.53-28.57-5.1-47-5.1-50.23,0-90.59,19.43-112.4,53.7-4.43-.19-8.92-.28-13.44-.28-43.08,0-81.92,9.1-114,26.53V78.33a73.18,73.18,0,0,0-73.09-73.1H1342.27a73.18,73.18,0,0,0-73.09,73.1v118H1080V99.21A99.33,99.33,0,0,0,980.79,0H805.11a99.47,99.47,0,0,0-99.22,99.32q0,8.61.07,17.15c.06,10.29.08,20.09-.07,29.34-31-29.55-82.45-57.9-165.89-57.9s-134.92,28.35-165.89,57.9c-.15-9.22-.13-19-.07-29.25q.06-8.58.07-17.25A99.38,99.38,0,0,0,274.9,0H99.21A99.33,99.33,0,0,0,0,99.21V470.48a98.51,98.51,0,0,0,32.46,73.44A98.54,98.54,0,0,0,0,617.41V980.79A99.33,99.33,0,0,0,99.21,1080H470.48a98.52,98.52,0,0,0,73.5-32.44A98.52,98.52,0,0,0,617.41,1080H2870.25a73.18,73.18,0,0,0,73.1-73.09V527.76l96.73-334.13A72.48,72.48,0,0,0,3028.3,129.39Z"/><path class="cls-2" d="M815,475.09c40.78-25.26,126.5,7.11,153.31,20.45a28,28,0,0,0,40.49-25.06V99.22a28,28,0,0,0-28-28H805.1a28,28,0,0,0-28,28c0,65.82,4.52,129-39.49,177.83a265.85,265.85,0,0,1-43.37,38.67q1-8.62,1.17-17.8v-1.2c-1.1-51.39-22.75-137.59-155.43-137.59s-154.32,86.2-155.41,137.59q0,.6,0,1.2.19,9.18,1.16,17.81A266.75,266.75,0,0,1,342.31,277c-44-48.81-39.42-112-39.42-177.82a28,28,0,0,0-28-28H99.21a28,28,0,0,0-28,28V470.48a28,28,0,0,0,40.51,25C138.45,482.16,224,449.73,265,475.06c17.68,10.93,26.64,34.1,26.64,68.89s-8.95,57.92-26.6,68.85c-40.78,25.27-126.49-7.11-153.28-20.43a28,28,0,0,0-40.51,25V980.79a28,28,0,0,0,28,28H470.48a28,28,0,0,0,25-40.49C482.2,941.48,449.82,855.77,475.09,815c10.93-17.64,34.1-26.59,68.85-26.59s57.92,9,68.86,26.59c25.26,40.79-7.11,126.5-20.43,153.29a28,28,0,0,0,25,40.51H980.78a28,28,0,0,0,28-28V617.41a28,28,0,0,0-40.49-25C941.48,605.69,855.76,638.08,815,612.8c-17.65-10.93-26.6-34.1-26.6-68.85S797.33,486,815,475.09Z"/><path class="cls-3" d="M952.79,428.5V127.21H831.89c-6,69.46-5.66,135.12-52.66,187.3a322.73,322.73,0,0,1-132.15,88.21,28,28,0,0,1-28.82-46.48c13.39-13,20.51-32.83,21.17-58.93-.94-38.41-13.31-82.19-99.44-82.19s-98.49,43.78-99.42,82.19c.65,26.1,7.78,45.93,21.17,58.94a28,28,0,0,1-28.81,46.49,323.14,323.14,0,0,1-132.22-88.23c-47-52.16-46.58-117.81-52.6-187.3H127.21V428.5c44.82-15.9,116.43-32.44,167.2-1.06,35.29,21.81,53.19,61,53.19,116.51s-17.9,94.69-53.19,116.51c-50.77,31.37-122.38,14.83-167.2-1.06V952.79H428.49c-15.89-44.82-32.43-116.43-1.06-167.2,21.82-35.3,61-53.19,116.51-53.19s94.7,17.89,116.51,53.19c31.38,50.77,14.84,122.38-1.06,167.2h293.4V659.4c-44.83,15.89-116.43,32.43-167.2,1.06-35.3-21.82-53.2-61-53.2-116.51s17.9-94.7,53.2-116.51C836.35,396.07,908,412.6,952.79,428.5Z"/><path class="cls-2" d="M1114.83,609.35h106.85l185.79,296.79h1.18l-1.18-296.79h67.07V999.93h-84.29L1181.91,668.71h-.6l.6,331.22h-67.08Z"/><path class="cls-2" d="M1522,915.64c0-44.52,31.46-79.54,109.81-79.54h108.63V815.32c0-43.92-25.53-63.51-77.17-63.51-45.11,0-70.63,17.21-70.63,49.86a94.19,94.19,0,0,0,.59,11.28h-61.14a147.69,147.69,0,0,1-1.19-17.22c0-58.76,51-93.78,134.75-93.78,89,0,141.27,42.14,141.27,119.31V999.93h-66.48c1.18-14.25,3-41,3-64.71h-.59c-9.5,43.34-44.52,69.45-109.22,69.45C1566.55,1004.67,1522,972.62,1522,915.64Zm218.44-33.84v-5.34H1637.78c-38,0-54.61,13.06-54.61,36.21,0,26.71,23.74,42.14,64.11,42.14C1704.85,954.81,1740.47,926.92,1740.47,881.8Z"/><path class="cls-2" d="M1874,895.46V760.71h-46.3v-54h37.4c11.28,0,15.43-5.94,17.21-22.56l3-43.92h55.2V706.7h100.91v54H1940.5V891.9c0,38,14.25,57,54.61,57,16.62,0,35.62-3,43.93-5.34v52.83c-8.9,3-29.09,7.12-53.42,7.12C1905.48,1003.49,1874,960.16,1874,895.46Z"/><path class="cls-2" d="M2084.15,607h68.26v65.29h-68.26Zm.6,99.72h66.48V999.93h-66.48Z"/><path class="cls-2" d="M2199.89,853.91c0-93.79,60-152,153.15-152,93.78,0,153.74,58.17,153.74,152,0,93.19-60,150.76-153.74,150.76C2259.85,1004.67,2199.89,947.1,2199.89,853.91Zm240.41,0c0-60-33.25-97.35-87.26-97.35s-86.67,37.39-86.67,97.35c0,59.36,32.65,96.16,86.67,96.16S2440.3,913.27,2440.3,853.91Z"/><path class="cls-2" d="M2548.32,706.7h66.49l-2.38,78.35h.6c16-52.83,54-83.1,122.27-83.1,74.2,0,119.91,42.14,119.91,114.56V999.93h-66.48V831.35c0-46.3-26.12-72.42-78.95-72.42-58.17,0-95,35-95,99.13V999.93h-66.49Z"/><path class="cls-2" d="M1114.83,326.35c0-20.18,1.19-45.11,1.78-58.76h63.52c-.6,13.65-1.19,36.21-1.19,57,0,57,27.3,91.41,78.94,91.41s82.51-35.61,82.51-110.4V78.83h71.23v222c0,115.15-55.2,174.51-151.36,174.51C1165.88,475.34,1114.83,420.73,1114.83,326.35Z"/><path class="cls-2" d="M1465,76.45h68.27v65.3H1465Zm.6,99.72h66.48V469.41h-66.48Z"/><path class="cls-2" d="M1887.07,497.3c0,61.74-57.57,98.54-154.33,98.54-99.12,0-158.48-30.28-158.48-83.11,0-29.67,22-51.64,57-53.42v-.59c-16.62-11.28-25.52-27.3-25.52-48.08,0-24.93,11.28-42.15,27.3-49.86v-1.19c-29.08-17.81-45.11-46.89-45.11-83.69,0-64.11,49.86-104.47,130.59-104.47,33.24,0,60.54,6.53,81.91,19l.59-.59c-8.9-9.5-14.24-20.78-14.24-33.24,0-23.75,22.56-38.58,57.58-38.58,14.24,0,22.55,1.18,29.68,3v46.9c-4.75-1.79-11.28-3-19.59-3-19.59,0-29.09,8.31-29.09,24.34,0,8.3,3,18.4,6.53,29.67,11.28,15.44,17.22,35,17.22,57,0,64.7-49.87,104.47-130.59,104.47a198.31,198.31,0,0,1-51.64-6.53c-3.57,4.15-7.13,12.46-7.13,22.55,0,16.62,11.88,26.71,33.24,26.71h95C1850.87,423.1,1887.07,450.41,1887.07,497.3ZM1820.59,505c0-19.59-14.84-30.28-46.3-30.28h-79.54c-33.24,0-54.61,10.1-54.61,32.66,0,27.89,35.62,41.54,92,41.54C1794.48,548.94,1820.59,531.14,1820.59,505ZM1651.42,275.9c0,35,25.53,57,67.08,57s67.07-22,67.07-57-25.52-57-67.07-57S1651.42,240.88,1651.42,275.9Z"/><path class="cls-2" d="M1889.45,371.46h60c0,33.84,19.59,54.61,76.58,54.61,54,0,77.75-16.62,77.75-43.33,0-11.28-4.15-21.37-19.59-26.71-14.24-5.34-42.14-8.31-74.78-11.28-45.71-4.15-76.58-10.09-94.39-23.15-16-11.87-25.52-33.24-25.52-55.79,0-58.77,57-94.38,136.53-94.38,91.4,0,131.77,38,131.77,104.47H2097.8c-.59-38-21.37-56.39-70.05-56.39-46.29,0-72.41,16.62-72.41,41.55,0,12.46,3,24.33,20.18,30.27,14.25,4.75,42.14,7.72,77.76,11.28,41.55,4.15,65.29,8.31,86.07,20.18,19.59,10.68,30.86,33.24,30.86,57,0,59.36-49.86,94.38-143.64,94.38C1925.66,474.15,1889.45,429,1889.45,371.46Z"/><path class="cls-2" d="M2204.05,385.12c0-44.52,31.46-79.54,109.81-79.54h108.63V284.8c0-43.92-25.52-63.51-77.17-63.51-45.11,0-70.63,17.21-70.63,49.86a94.19,94.19,0,0,0,.59,11.28h-61.14a148,148,0,0,1-1.18-17.22c0-58.76,51-93.78,134.74-93.78,89,0,141.27,42.14,141.27,119.31V469.41h-66.48c1.19-14.25,3-41,3-64.71h-.6c-9.49,43.34-44.52,69.45-109.21,69.45C2248.57,474.15,2204.05,442.1,2204.05,385.12Zm218.44-33.84v-5.34H2319.8c-38,0-54.61,13.06-54.61,36.21,0,26.71,23.75,42.14,64.11,42.14C2386.88,424.29,2422.49,396.39,2422.49,351.28Z"/><path class="cls-2" d="M2509.16,176.17h70.64l59.95,226.76h1.19l70-226.76h65.89l68.26,226.76h1.19l61.73-226.76H2971l-84.88,293.24h-81.91l-63.52-215.48h-1.78L2673,469.41h-78.94Z"/></svg>